<?xml version="1.0" standalone="no"?><!DOCTYPE svg PUBLIC "-//W3C//DTD SVG 1.1//EN" "http://www.w3.org/Graphics/SVG/1.1/DTD/svg11.dtd"><svg t="1732932563052" class="icon" viewBox="0 0 1024 1024" version="1.1" xmlns="http://www.w3.org/2000/svg" p-id="11816" xmlns:xlink="http://www.w3.org/1999/xlink" width="200" height="200"><path d="M407.285155 395.550166a30.974513 30.974513 0 0 1 34.814329 25.598771 25.598771 25.598771 0 0 1 0 8.703582v69.628658a30.974513 30.974513 0 0 1-25.598772 35.070317 25.598771 25.598771 0 0 1-8.703582 0 30.974513 30.974513 0 0 1-35.070316-25.598772 51.197543 51.197543 0 0 1 0-8.95957v-69.37267a31.230501 31.230501 0 0 1 25.598771-35.070316z m232.69283 0a30.974513 30.974513 0 0 1 34.814329 25.598771 25.598771 25.598771 0 0 1 0 8.703582v69.628658a30.974513 30.974513 0 0 1-25.598771 35.070317 25.598771 25.598771 0 0 1-8.703582 0 30.718526 30.718526 0 0 1-34.814329-25.598772 25.598771 25.598771 0 0 1 0-8.95957v-69.37267a30.974513 30.974513 0 0 1 25.598771-35.070316z" fill="#1296db" p-id="11817"></path><path d="M881.374398 866.567557A511.975425 511.975425 0 1 0 511.984129 1024h372.974097a46.589764 46.589764 0 0 0 46.589764-46.845751A45.821801 45.821801 0 0 0 921.564469 947.203686m-105.978913 1.791914H511.984129a436.715038 436.715038 0 1 1 315.376862-134.393549c-35.070317 36.350255-32.254452 86.523847-12.543398 134.393549z" fill="#1296db" p-id="11818"></path></svg>